<svg width="400" height="400" xmlns="http://www.w3.org/2000/svg">

 <g>
  <title>background</title>
  <rect fill="none" id="canvas_background" height="402" width="402" y="-1" x="-1"/>
 </g>
 <g>
  <title>Layer 1</title>
  <g id="Guides_For_Artboard"/>
  <g stroke="null" id="Layer_1">
   <g stroke="null" id="svg_1">
    <path stroke="#F2AD05" id="svg_2" d="m322.993669,310.923542c0,12.479794 -9.265512,22.592386 -20.701088,22.592386l-73.039833,0.021562c0,0 -0.6407,3.355976 -17.516068,21.401854c-17.184937,18.38009 -37.591858,27.263646 -35.252377,24.33583c32.607949,-40.850804 4.578851,-45.702261 4.578851,-45.702261l-70.654149,-0.055445c-11.427875,0 -20.693387,-10.112592 -20.693387,-22.592386l0,-111.417165c0,-12.475174 9.265512,-22.589306 20.693387,-22.589306l191.883577,0c11.437116,0 20.701088,10.114132 20.701088,22.589306l0,111.415625z" stroke-miterlimit="10" fill="#F2AD05"/>
    <path stroke="#F2AD05" id="svg_3" d="m281.933405,93.376529c0,41.742548 -33.826203,75.577992 -75.568751,75.577992c-41.741008,0 -75.584153,-33.836984 -75.584153,-75.577992s33.844685,-75.577992 75.584153,-75.577992c41.742548,-0.00154 75.568751,33.835444 75.568751,75.577992z" stroke-miterlimit="10" fill="#F2AD05"/>
    <polygon stroke="#F2AD05" id="svg_4" points="336.14190673828125,218.7196807861328 336.14190673828125,254.96083068847656 336.14190673828125,292.2092590332031 396.7434997558594,320.6095275878906 396.7434997558594,254.96083068847656 396.7434997558594,189.31060791015625 " stroke-miterlimit="10" stroke-linejoin="round" stroke-width="4" fill="#F2AD05"/>
    <path stroke="#F2AD05" id="svg_5" d="m81.620615,193.245688c0,-12.906415 9.587402,-23.371699 21.408015,-23.371699l48.833375,0c-8.590928,-32.296839 -38.016938,-56.096699 -73.021352,-56.096699c-41.744088,0 -75.584153,33.838524 -75.584153,75.579532s33.841605,75.577992 75.584153,75.577992c0.931788,0 1.855875,-0.036963 2.779962,-0.070847l0,-71.61828z" stroke-miterlimit="10" fill="#F2AD05"/>
   </g>
  </g>
 </g>
</svg>